<?xml version="1.0" standalone="no"?>
<!DOCTYPE svg PUBLIC "-//W3C//DTD SVG 20010904//EN"
 "http://www.w3.org/TR/2001/REC-SVG-20010904/DTD/svg10.dtd">
<svg version="1.0" xmlns="http://www.w3.org/2000/svg"
 width="48.000000pt" height="48.000000pt" viewBox="0 0 48.000000 48.000000"
 preserveAspectRatio="xMidYMid meet">
<metadata>
Created by potrace 1.16, written by Peter Selinger 2001-2019
</metadata>
<g transform="translate(0.000000,48.000000) scale(0.014371,-0.012598)"
fill="#000000" stroke="none">
<path d="M1667 3666 c-4 -9 21 -25 67 -45 277 -122 527 -343 645 -571 147
-286 134 -573 -40 -832 -85 -127 -260 -274 -424 -356 -187 -93 -497 -161 -513
-113 -2 7 -13 21 -24 31 -11 10 -17 23 -13 29 3 6 -3 23 -14 37 -12 15 -21 33
-21 41 0 8 -7 27 -15 42 -13 25 -13 30 0 41 24 20 8 29 -53 30 -75 1 -105 5
-121 14 -6 4 -24 5 -37 2 -18 -5 -24 -3 -19 5 5 8 1 9 -14 4 -11 -3 -21 -2
-21 2 0 12 -89 35 -102 27 -6 -4 -8 -3 -5 3 5 8 -50 33 -83 37 -3 1 -34 16
-69 34 -35 19 -60 28 -55 20 4 -7 4 -10 -1 -6 -4 4 -13 3 -20 -2 -8 -7 -12 -5
-12 5 0 8 5 11 11 8 6 -4 2 4 -8 16 l-20 22 -13 -23 -13 -23 6 26 c5 22 -2 30
-53 65 -63 42 -98 60 -88 44 3 -6 2 -10 -2 -10 -5 0 -14 -9 -21 -21 -8 -12 -9
-18 -3 -14 6 3 11 2 11 -3 0 -5 -9 -12 -21 -15 -12 -3 -18 -10 -14 -16 3 -6 1
-11 -6 -11 -7 0 -10 -3 -6 -6 3 -3 -3 -14 -14 -25 -21 -21 -26 -44 -7 -33 8 4
10 3 5 -2 -5 -5 -13 -9 -18 -9 -5 0 -9 -3 -9 -7 0 -5 -9 -17 -20 -28 -11 -11
-20 -27 -20 -35 0 -8 -6 -15 -12 -15 -9 0 -8 -4 2 -10 13 -8 13 -10 -2 -10
-15 0 -50 -49 -47 -66 0 -4 -5 -10 -13 -15 -17 -11 -17 -30 0 -51 16 -19 37
-14 26 5 -5 9 -4 9 6 0 9 -8 19 -9 31 -3 12 7 20 6 25 -2 4 -7 3 -8 -4 -4 -7
4 -12 3 -12 -3 0 -5 -9 -8 -20 -6 -28 5 -25 -9 5 -29 14 -9 25 -14 25 -11 0 4
7 -1 16 -10 10 -9 25 -14 35 -12 10 3 17 0 16 -7 -1 -6 4 -10 11 -8 6 1 12 -2
12 -8 0 -5 5 -10 11 -10 5 0 7 6 3 13 -4 6 -3 9 1 4 5 -4 10 -16 12 -26 1 -10
-83 -274 -187 -586 -104 -313 -188 -571 -185 -573 9 -10 347 -91 457 -111 150
-27 396 -46 481 -37 l67 8 0 143 0 143 108 6 c538 35 986 219 1303 535 163
163 255 303 318 485 76 217 82 477 16 729 -135 520 -561 951 -1132 1147 -61
21 -83 25 -86 16z"/>
</g>
</svg>
